<svg xmlns="http://www.w3.org/2000/svg" xmlns:xlink="http://www.w3.org/1999/xlink" width="650" zoomAndPan="magnify" viewBox="0 0 487.5 104.999996" height="140" preserveAspectRatio="xMidYMid meet" version="1.0"><defs><g/><clipPath id="b34b7ec17e"><path d="M 3.8125 5.578125 L 19 5.578125 L 19 91.671875 L 3.8125 91.671875 Z M 3.8125 5.578125 " clip-rule="nonzero"/></clipPath><clipPath id="88bb6241df"><path d="M 27 79 L 40 79 L 40 91.671875 L 27 91.671875 Z M 27 79 " clip-rule="nonzero"/></clipPath><clipPath id="12883582eb"><path d="M 47.808594 5.578125 L 62.316406 5.578125 L 62.316406 91.472656 L 47.808594 91.472656 Z M 47.808594 5.578125 " clip-rule="nonzero"/></clipPath><clipPath id="b187b4df85"><path d="M 25 5.578125 L 33 5.578125 L 33 17 L 25 17 Z M 25 5.578125 " clip-rule="nonzero"/></clipPath><clipPath id="5412cbe248"><path d="M 34 5.578125 L 42 5.578125 L 42 17 L 34 17 Z M 34 5.578125 " clip-rule="nonzero"/></clipPath></defs><g fill="#545454" fill-opacity="1"><g transform="translate(9.211782, 76.835542)"><g><path d="M 23.191406 0.898438 C 36.648438 0.898438 45 -5.175781 45 -15.667969 L 45 -15.804688 C 45 -25.332031 39.960938 -29.125 25.746094 -33.542969 C 18.222656 -35.960938 15.253906 -37.617188 15.253906 -41.480469 L 15.253906 -41.550781 C 15.253906 -44.792969 18.289062 -47.277344 24.710938 -47.277344 C 30.160156 -47.277344 35.683594 -45.691406 39.753906 -43 L 43.898438 -52.042969 C 39.132812 -55.148438 31.886719 -56.941406 24.640625 -56.941406 C 11.941406 -56.941406 4.347656 -50.660156 4.347656 -41.34375 L 4.347656 -41.207031 C 4.347656 -31.957031 8.558594 -27.609375 20.773438 -23.949219 C 30.78125 -20.84375 34.027344 -19.324219 34.027344 -15.597656 L 34.027344 -15.53125 C 34.027344 -11.25 29.539062 -8.835938 22.777344 -8.835938 C 16.703125 -8.835938 10.835938 -10.492188 6.695312 -13.25 L 2.554688 -4.277344 C 7.523438 -0.964844 15.183594 0.898438 23.191406 0.898438 Z M 23.191406 0.898438 "/></g></g></g><g fill="#5cb6f9" fill-opacity="1"><g transform="translate(54.698051, 76.835542)"><g><path d="M 14.703125 -20.636719 L 14.703125 -55.976562 L 3.796875 -55.976562 L 3.796875 0 L 14.703125 0 L 14.703125 -19.671875 L 15.046875 -20.152344 Z M 27.261719 -20.292969 L 41.34375 -39.617188 L 29.332031 -39.617188 L 15.046875 -20.152344 L 29.195312 0 L 42.035156 0 Z M 27.261719 -20.292969 "/></g></g></g><g fill="#5cb6f9" fill-opacity="1"><g transform="translate(94.929598, 76.835542)"><g><path d="M 43.828125 -18.496094 C 43.828125 -32.648438 36.097656 -41.207031 23.398438 -41.207031 C 10.835938 -41.207031 2.761719 -32.507812 2.761719 -20.152344 L 2.761719 -20.085938 C 2.761719 -7.523438 11.386719 1.035156 24.710938 1.035156 C 32.441406 1.035156 37.890625 -1.378906 41.894531 -3.863281 L 37.132812 -12.355469 C 34.234375 -10.285156 30.023438 -8.558594 25.191406 -8.558594 C 19.1875 -8.558594 15.253906 -12.421875 14.148438 -17.53125 L 43.828125 -17.53125 Z M 23.328125 -32.300781 C 28.644531 -32.300781 31.820312 -28.851562 32.648438 -24.296875 L 14.21875 -24.296875 C 15.253906 -28.851562 18.566406 -32.300781 23.328125 -32.300781 Z M 23.328125 -32.300781 "/></g></g></g><g fill="#5cb6f9" fill-opacity="1"><g transform="translate(138.956628, 76.835542)"><g><path d="M 34.027344 0 L 34.027344 -10.144531 L 26.367188 -10.144531 C 21.671875 -10.144531 19.53125 -11.941406 19.53125 -16.359375 L 19.53125 -29.539062 L 33.957031 -29.539062 L 33.957031 -39.617188 L 19.53125 -39.617188 L 19.53125 -51.765625 L 8.558594 -51.765625 L 8.558594 -39.617188 L 1.585938 -39.617188 L 1.585938 -29.539062 L 8.558594 -29.539062 L 8.558594 -12.90625 C 8.558594 -4.277344 12.007812 0 21.464844 0 Z M 34.027344 0 "/></g></g></g><g fill="#5cb6f9" fill-opacity="1"><g transform="translate(173.253412, 76.835542)"><g><path d="M 24.296875 1.035156 C 29.058594 1.035156 34.234375 -0.136719 37.960938 -2.207031 L 33.683594 -10.351562 C 30.921875 -8.902344 28.089844 -8.074219 24.847656 -8.074219 C 17.808594 -8.074219 13.804688 -13.183594 13.804688 -20.015625 L 13.804688 -20.152344 C 13.804688 -27.054688 17.808594 -32.027344 24.847656 -32.027344 C 28.089844 -32.027344 30.988281 -31.128906 33.683594 -29.679688 L 38.03125 -37.824219 C 34.234375 -39.960938 29.058594 -41.207031 24.296875 -41.207031 C 11.25 -41.207031 2.761719 -32.507812 2.761719 -20.152344 L 2.761719 -20.015625 C 2.761719 -7.59375 11.320312 1.035156 24.296875 1.035156 Z M 24.296875 1.035156 "/></g></g></g><g fill="#5cb6f9" fill-opacity="1"><g transform="translate(210.310552, 76.835542)"><g><path d="M 22.085938 -41.207031 C 20.222656 -41.207031 17.601562 -41 14.703125 -40.722656 L 14.703125 -55.976562 L 3.726562 -55.976562 L 3.726562 0 L 14.703125 0 L 14.703125 -30.714844 C 17.1875 -31.128906 19.808594 -31.40625 21.671875 -31.40625 C 26.78125 -31.40625 29.472656 -29.539062 29.472656 -24.570312 L 29.472656 0 L 40.445312 0 L 40.445312 -25.882812 C 40.445312 -37.753906 31.886719 -41.207031 22.085938 -41.207031 Z M 22.085938 -41.207031 "/></g></g></g><g fill="#545454" fill-opacity="1"><g transform="translate(251.855506, 76.835542)"><g><path d="M 17.667969 -10.144531 C 36.582031 -22.433594 43.621094 -31.128906 43.621094 -41.066406 L 43.621094 -41.207031 C 43.621094 -52.179688 35.613281 -56.941406 24.089844 -56.941406 C 16.703125 -56.941406 9.730469 -55.007812 3.863281 -51.902344 L 8.074219 -42.585938 C 12.285156 -45.277344 18.015625 -46.933594 22.5 -46.933594 C 28.917969 -46.933594 32.648438 -44.171875 32.648438 -39.132812 L 32.648438 -38.996094 C 32.648438 -29.953125 19.878906 -20.636719 3.726562 -9.664062 L 3.726562 0 L 44.792969 0 L 44.792969 -10.144531 Z M 17.667969 -10.144531 "/></g></g></g><g fill="#5cb6f9" fill-opacity="1"><g transform="translate(298.171541, 76.835542)"><g><path d="M 32.234375 0.898438 C 39.824219 0.898438 45.621094 -1.242188 50.59375 -4.347656 L 46.382812 -13.25 C 41.621094 -10.351562 36.925781 -9.25 32.234375 -9.25 C 22.015625 -9.25 13.875 -16.632812 13.875 -27.882812 L 13.875 -28.023438 C 13.875 -39.753906 22.085938 -46.796875 32.234375 -46.796875 C 36.925781 -46.796875 41.621094 -45.621094 46.382812 -42.722656 L 50.59375 -51.628906 C 45.484375 -54.871094 39.546875 -56.941406 32.234375 -56.941406 C 14.703125 -56.941406 2.828125 -45.207031 2.828125 -28.023438 L 2.828125 -27.882812 C 2.828125 -10.699219 14.769531 0.898438 32.234375 0.898438 Z M 32.234375 0.898438 "/></g></g></g><g fill="#5cb6f9" fill-opacity="1"><g transform="translate(348.961439, 76.835542)"><g><path d="M 24.777344 1.105469 C 37.753906 1.105469 46.796875 -7.867188 46.796875 -20.085938 L 46.796875 -20.152344 C 46.796875 -32.300781 37.753906 -41.207031 24.777344 -41.207031 C 11.800781 -41.207031 2.828125 -32.300781 2.828125 -20.152344 L 2.828125 -20.085938 C 2.828125 -7.867188 11.871094 1.105469 24.777344 1.105469 Z M 24.777344 -8.695312 C 18.222656 -8.695312 13.804688 -13.667969 13.804688 -20.085938 L 13.804688 -20.222656 C 13.804688 -26.574219 18.152344 -31.40625 24.777344 -31.40625 C 31.472656 -31.40625 35.753906 -26.574219 35.753906 -20.222656 L 35.753906 -20.085938 C 35.753906 -13.667969 31.40625 -8.695312 24.777344 -8.695312 Z M 24.777344 -8.695312 "/></g></g></g><g fill="#5cb6f9" fill-opacity="1"><g transform="translate(395.886843, 76.835542)"><g><path d="M 24.777344 1.105469 C 32.164062 1.105469 37.132812 0 42.792969 -2.761719 L 42.792969 -55.976562 L 31.886719 -55.976562 L 31.886719 -40.167969 C 29.472656 -40.722656 26.917969 -41.207031 24.363281 -41.207031 C 10.835938 -41.207031 2.828125 -32.300781 2.828125 -20.152344 L 2.828125 -20.015625 C 2.828125 -7.867188 11.25 1.105469 24.777344 1.105469 Z M 24.777344 -8.695312 C 17.601562 -8.695312 13.804688 -13.667969 13.804688 -20.015625 L 13.804688 -20.152344 C 13.804688 -26.503906 17.601562 -31.40625 24.777344 -31.40625 C 27.195312 -31.40625 29.746094 -30.851562 31.886719 -30.367188 L 31.886719 -9.59375 C 29.746094 -9.042969 27.402344 -8.695312 24.777344 -8.695312 Z M 24.777344 -8.695312 "/></g></g></g><g fill="#5cb6f9" fill-opacity="1"><g transform="translate(439.84487, 76.835542)"><g><path d="M 43.828125 -18.496094 C 43.828125 -32.648438 36.097656 -41.207031 23.398438 -41.207031 C 10.835938 -41.207031 2.761719 -32.507812 2.761719 -20.152344 L 2.761719 -20.085938 C 2.761719 -7.523438 11.386719 1.035156 24.710938 1.035156 C 32.441406 1.035156 37.890625 -1.378906 41.894531 -3.863281 L 37.132812 -12.355469 C 34.234375 -10.285156 30.023438 -8.558594 25.191406 -8.558594 C 19.1875 -8.558594 15.253906 -12.421875 14.148438 -17.53125 L 43.828125 -17.53125 Z M 23.328125 -32.300781 C 28.644531 -32.300781 31.820312 -28.851562 32.648438 -24.296875 L 14.21875 -24.296875 C 15.253906 -28.851562 18.566406 -32.300781 23.328125 -32.300781 Z M 23.328125 -32.300781 "/></g></g></g><g clip-path="url(#b34b7ec17e)"><path fill="#5cb6f9" d="M 15.351562 5.578125 C 16.195312 5.578125 16.898438 5.867188 17.460938 6.449219 C 18.019531 7.027344 18.300781 7.730469 18.300781 8.558594 C 18.300781 9.402344 18.019531 10.101562 17.460938 10.652344 C 16.898438 11.207031 16.195312 11.480469 15.351562 11.480469 L 9.695312 11.480469 L 9.695312 85.570312 L 15.351562 85.570312 C 16.195312 85.570312 16.898438 85.847656 17.460938 86.398438 C 18.019531 86.949219 18.300781 87.648438 18.300781 88.492188 C 18.300781 89.359375 18.019531 90.070312 17.460938 90.632812 C 16.898438 91.191406 16.195312 91.472656 15.351562 91.472656 L 6.773438 91.472656 C 5.910156 91.472656 5.203125 91.191406 4.648438 90.632812 C 4.097656 90.070312 3.820312 89.359375 3.820312 88.492188 L 3.820312 8.558594 C 3.820312 7.730469 4.097656 7.027344 4.648438 6.449219 C 5.203125 5.867188 5.910156 5.578125 6.773438 5.578125 L 15.351562 5.578125 " fill-opacity="1" fill-rule="nonzero"/></g><g clip-path="url(#88bb6241df)"><path fill="#545454" d="M 33.492188 82.066406 C 32.984375 82.066406 32.507812 82.160156 32.066406 82.355469 C 31.625 82.546875 31.246094 82.808594 30.921875 83.132812 C 30.597656 83.460938 30.339844 83.84375 30.152344 84.285156 C 29.960938 84.726562 29.867188 85.195312 29.867188 85.691406 C 29.867188 86.183594 29.960938 86.652344 30.152344 87.09375 C 30.339844 87.535156 30.597656 87.917969 30.921875 88.246094 C 31.246094 88.574219 31.625 88.832031 32.066406 89.023438 C 32.507812 89.21875 32.984375 89.3125 33.492188 89.3125 C 33.996094 89.3125 34.464844 89.21875 34.90625 89.023438 C 35.347656 88.832031 35.730469 88.570312 36.058594 88.238281 C 36.386719 87.910156 36.644531 87.527344 36.832031 87.089844 C 37.023438 86.652344 37.117188 86.183594 37.117188 85.691406 C 37.117188 85.195312 37.023438 84.726562 36.832031 84.289062 C 36.644531 83.851562 36.386719 83.46875 36.058594 83.140625 C 35.730469 82.808594 35.347656 82.546875 34.90625 82.355469 C 34.464844 82.160156 33.996094 82.066406 33.492188 82.066406 Z M 39.273438 85.691406 C 39.273438 87.300781 38.710938 88.664062 37.582031 89.777344 C 36.4375 90.90625 35.074219 91.472656 33.492188 91.472656 C 31.894531 91.472656 30.53125 90.90625 29.402344 89.777344 C 28.273438 88.648438 27.710938 87.285156 27.710938 85.691406 C 27.710938 84.09375 28.273438 82.730469 29.402344 81.601562 C 30.53125 80.472656 31.894531 79.90625 33.492188 79.90625 C 35.074219 79.90625 36.4375 80.472656 37.582031 81.601562 C 38.144531 82.164062 38.566406 82.789062 38.847656 83.46875 C 39.125 84.152344 39.269531 84.890625 39.273438 85.691406 " fill-opacity="1" fill-rule="nonzero"/></g><g clip-path="url(#12883582eb)"><path fill="#5cb6f9" d="M 59.363281 5.578125 C 60.210938 5.578125 60.914062 5.867188 61.476562 6.449219 C 62.035156 7.027344 62.316406 7.730469 62.316406 8.558594 L 62.316406 88.492188 C 62.316406 89.359375 62.035156 90.070312 61.476562 90.632812 C 60.914062 91.191406 60.210938 91.472656 59.363281 91.472656 L 50.789062 91.472656 C 49.921875 91.472656 49.214844 91.191406 48.664062 90.632812 C 48.113281 90.070312 47.835938 89.359375 47.835938 88.492188 C 47.835938 87.648438 48.113281 86.949219 48.664062 86.398438 C 49.214844 85.847656 49.921875 85.570312 50.789062 85.570312 L 56.414062 85.570312 L 56.414062 11.480469 L 50.789062 11.480469 C 49.921875 11.480469 49.214844 11.207031 48.664062 10.652344 C 48.113281 10.101562 47.835938 9.402344 47.835938 8.558594 C 47.835938 7.730469 48.113281 7.027344 48.664062 6.449219 C 49.214844 5.867188 49.921875 5.578125 50.789062 5.578125 L 59.363281 5.578125 " fill-opacity="1" fill-rule="nonzero"/></g><g clip-path="url(#b187b4df85)"><path fill="#545454" d="M 32.203125 8.734375 C 32.203125 9.5625 32.125 10.457031 31.972656 11.421875 C 31.816406 12.382812 31.585938 13.273438 31.28125 14.097656 C 30.980469 14.917969 30.605469 15.597656 30.160156 16.140625 C 29.714844 16.679688 29.207031 16.949219 28.628906 16.949219 C 28.09375 16.949219 27.648438 16.765625 27.285156 16.394531 C 26.921875 16.027344 26.742188 15.574219 26.742188 15.039062 C 26.742188 14.582031 26.902344 14.171875 27.230469 13.808594 C 27.554688 13.445312 27.71875 13.070312 27.71875 12.6875 C 27.71875 12.152344 27.414062 11.574219 26.808594 10.953125 C 26.199219 10.347656 25.894531 9.605469 25.894531 8.734375 C 25.894531 7.859375 26.203125 7.113281 26.816406 6.5 C 27.433594 5.886719 28.175781 5.578125 29.050781 5.578125 C 29.925781 5.578125 30.667969 5.886719 31.28125 6.5 C 31.898438 7.113281 32.203125 7.859375 32.203125 8.734375 " fill-opacity="1" fill-rule="nonzero"/></g><g clip-path="url(#5412cbe248)"><path fill="#545454" d="M 41.089844 8.734375 C 41.089844 9.5625 41.011719 10.457031 40.855469 11.421875 C 40.699219 12.382812 40.46875 13.273438 40.167969 14.097656 C 39.863281 14.917969 39.488281 15.597656 39.046875 16.140625 C 38.601562 16.679688 38.089844 16.949219 37.511719 16.949219 C 36.980469 16.949219 36.53125 16.765625 36.167969 16.394531 C 35.804688 16.027344 35.625 15.574219 35.625 15.039062 C 35.625 14.582031 35.789062 14.171875 36.113281 13.808594 C 36.4375 13.445312 36.601562 13.070312 36.601562 12.6875 C 36.601562 12.152344 36.296875 11.574219 35.691406 10.953125 C 35.085938 10.347656 34.78125 9.605469 34.78125 8.734375 C 34.78125 7.859375 35.089844 7.113281 35.703125 6.5 C 36.316406 5.886719 37.0625 5.578125 37.933594 5.578125 C 38.808594 5.578125 39.550781 5.886719 40.167969 6.5 C 40.78125 7.113281 41.089844 7.859375 41.089844 8.734375 " fill-opacity="1" fill-rule="nonzero"/></g></svg>